<?xml version="1.0" standalone="no"?>
<!DOCTYPE svg PUBLIC "-//W3C//DTD SVG 20010904//EN"
 "http://www.w3.org/TR/2001/REC-SVG-20010904/DTD/svg10.dtd">
<svg version="1.0" xmlns="http://www.w3.org/2000/svg"
 width="840.000000pt" height="598.000000pt" viewBox="0 0 840.000000 598.000000"
 preserveAspectRatio="xMidYMid meet">

<g transform="translate(0.000000,598.000000) scale(0.100000,-0.100000)"
fill="#000000" stroke="none">
<path d="M2405 5561 c-50 -22 -92 -71 -100 -114 -3 -18 -5 -166 -3 -329 3
-283 4 -298 24 -325 67 -91 181 -106 265 -36 57 48 59 63 59 387 0 184 -4 305
-11 323 -15 40 -48 73 -94 94 -51 23 -89 23 -140 0z"/>
<path d="M4398 5571 c-47 -15 -85 -49 -108 -95 -20 -42 -21 -55 -18 -343 l3
-300 28 -42 c32 -48 91 -80 146 -81 52 0 118 37 149 83 l27 41 0 310 c0 307 0
311 -23 348 -13 20 -38 46 -56 58 -39 23 -109 33 -148 21z"/>
<path d="M1312 5079 c-50 -25 -86 -68 -101 -124 -9 -29 -11 -511 -9 -1830 l3
-1790 21 -40 c11 -22 40 -53 63 -70 l43 -30 1170 -3 c938 -2 1169 0 1166 10
-2 7 -21 66 -42 131 l-39 117 -1034 0 -1033 0 0 1450 0 1450 1774 0 1774 0 64
63 c73 71 150 119 242 153 87 31 206 46 284 36 l63 -9 -3 181 c-3 208 -12 238
-87 291 l-43 30 -428 3 -428 3 -4 -153 c-4 -175 -13 -203 -90 -274 -62 -57
-121 -78 -205 -72 -79 6 -132 30 -185 85 -66 68 -78 108 -78 271 l0 142 -704
0 -704 0 -4 -142 c-3 -133 -5 -147 -31 -200 -49 -100 -141 -158 -252 -158
-108 0 -196 54 -250 151 -28 52 -30 61 -33 202 l-4 147 -417 0 c-404 0 -417
-1 -459 -21z"/>
<path d="M2652 3768 l3 -333 225 -1 c124 -1 273 0 333 3 l107 6 0 328 0 329
-335 0 -335 0 2 -332z"/>
<path d="M3600 3771 l0 -328 174 -8 c96 -4 205 -4 243 0 64 7 71 10 123 59 30
28 70 63 88 78 l32 27 0 250 0 251 -330 0 -330 0 0 -329z"/>
<path d="M1710 2885 l0 -335 330 0 330 0 0 335 0 335 -330 0 -330 0 0 -335z"/>
<path d="M2657 3213 c-4 -3 -7 -154 -7 -335 l0 -328 335 0 335 0 0 335 0 335
-328 0 c-181 0 -332 -3 -335 -7z"/>
<path d="M3601 2918 l1 -303 29 84 c38 111 126 293 200 413 32 53 59 99 59
102 0 3 -65 6 -145 6 l-145 0 1 -302z"/>
<path d="M1710 1995 l0 -335 330 0 330 0 0 335 0 335 -330 0 -330 0 0 -335z"/>
<path d="M2657 2323 c-4 -3 -7 -154 -7 -335 l0 -328 335 0 335 0 0 335 0 335
-328 0 c-181 0 -332 -3 -335 -7z"/>
</g>
</svg>
