<?xml version="1.0" standalone="no"?>
<!DOCTYPE svg PUBLIC "-//W3C//DTD SVG 20010904//EN"
 "http://www.w3.org/TR/2001/REC-SVG-20010904/DTD/svg10.dtd">
<svg version="1.0" xmlns="http://www.w3.org/2000/svg"
 width="295.000000pt" height="295.000000pt" viewBox="0 0 295.000000 295.000000"
 preserveAspectRatio="xMidYMid meet">

<g transform="translate(0.000000,295.000000) scale(0.100000,-0.100000)"
fill="#000000" stroke="none">
<path d="M1342 2821 c-29 -11 -68 -29 -86 -40 -53 -33 -125 -117 -154 -179
-24 -51 -27 -69 -27 -167 0 -104 2 -114 32 -176 39 -80 120 -159 200 -197 52
-24 70 -27 168 -27 104 0 114 2 176 32 80 39 159 120 197 200 24 52 27 70 27
168 0 98 -3 116 -27 168 -38 80 -117 161 -197 199 -57 28 -79 32 -161 35 -75
3 -106 -1 -148 -16z"/>
<path d="M1342 1861 c-29 -11 -68 -29 -86 -40 -53 -33 -125 -117 -154 -179
-24 -51 -27 -69 -27 -167 0 -104 2 -114 32 -176 39 -80 120 -159 200 -197 52
-24 70 -27 168 -27 104 0 114 2 176 32 80 39 159 120 197 200 24 52 27 70 27
168 0 98 -3 116 -27 168 -38 80 -117 161 -197 199 -57 28 -79 32 -161 35 -75
3 -106 -1 -148 -16z"/>
<path d="M1342 811 c-29 -11 -68 -29 -86 -40 -53 -33 -125 -117 -154 -179 -24
-51 -27 -69 -27 -167 0 -104 2 -114 32 -176 39 -80 120 -159 200 -197 52 -24
70 -27 168 -27 104 0 114 2 176 32 80 39 159 120 197 200 24 52 27 70 27 168
0 98 -3 116 -27 168 -38 80 -117 161 -197 199 -57 28 -79 32 -161 35 -75 3
-106 -1 -148 -16z"/>
</g>
</svg>
