<?xml version="1.0" standalone="no"?>
<!DOCTYPE svg PUBLIC "-//W3C//DTD SVG 20010904//EN"
 "http://www.w3.org/TR/2001/REC-SVG-20010904/DTD/svg10.dtd">
<svg version="1.0" xmlns="http://www.w3.org/2000/svg"
 width="3347.000000pt" height="1574.000000pt" viewBox="0 0 3347.000000 1574.000000"
 preserveAspectRatio="xMidYMid meet">

<g transform="translate(0.000000,1574.000000) scale(0.100000,-0.100000)"
fill="#000000" stroke="none">
<path d="M20356 9693 c-39 -66 -46 -86 -46 -133 0 -30 -2 -116 -5 -190 -2 -74
-1 -125 1 -112 6 23 28 28 53 13 13 -9 12 -148 -5 -387 l-6 -81 -51 -18 c-29
-10 -112 -45 -186 -77 -116 -51 -135 -57 -150 -45 -17 14 -202 171 -361 306
-52 45 -97 81 -100 81 -3 0 -5 -108 -5 -239 0 -179 3 -243 13 -252 19 -20 14
-67 -8 -86 -11 -10 -20 -25 -20 -35 0 -9 -9 -19 -20 -23 -16 -5 -110 -157
-110 -177 0 -3 29 -18 65 -34 41 -18 61 -32 55 -39 -4 -5 -10 -27 -11 -48 -4
-41 9 -57 49 -57 43 0 141 -40 355 -143 412 -200 430 -222 577 -693 78 -250
94 -339 67 -390 -25 -47 -602 -604 -627 -604 -9 0 -44 79 -59 135 -6 22 -22
76 -37 120 -14 44 -28 91 -30 104 -3 13 -9 33 -15 43 -6 10 -12 31 -14 46 -1
15 -10 45 -18 67 -8 22 -23 67 -32 100 -10 33 -26 84 -36 113 -11 28 -18 53
-18 55 1 1 -11 42 -26 90 l-27 89 -61 27 c-60 27 -117 54 -442 211 -82 39
-179 83 -215 97 -36 13 -72 30 -80 37 -8 6 -59 34 -112 61 -54 26 -98 52 -98
55 0 4 34 22 75 40 42 18 73 35 71 37 -2 3 -13 0 -24 -6 -14 -8 -33 -5 -73 10
-117 44 -109 36 -109 111 0 200 78 519 177 723 13 28 17 41 8 30 -9 -11 -45
-78 -80 -150 -160 -326 -204 -608 -156 -990 28 -217 51 -323 97 -438 130 -330
358 -614 655 -812 118 -80 215 -124 344 -159 55 -15 150 -42 210 -61 231 -71
315 -81 558 -65 423 26 775 154 1082 395 83 65 265 246 265 264 0 6 -12 13
-27 16 -16 4 -40 13 -55 21 -14 8 -32 14 -40 14 -8 0 -31 9 -53 20 -22 11 -47
20 -57 20 -9 0 -20 5 -23 10 -3 6 -19 10 -35 10 -16 0 -31 4 -34 9 -3 4 13 5
37 0 23 -4 63 -8 90 -9 26 0 47 -4 47 -10 0 -16 106 -12 119 4 9 10 8 16 -4
26 -8 7 -13 16 -10 20 3 4 -2 13 -10 20 -8 7 -15 18 -15 24 0 6 -9 18 -20 26
-11 8 -20 18 -20 23 0 5 -13 26 -28 46 -16 20 -32 43 -35 51 -4 8 -36 56 -72
105 -35 50 -85 120 -110 156 -24 37 -51 71 -58 77 -10 8 -43 -18 -142 -113
-84 -80 -124 -124 -112 -124 27 -1 78 -30 115 -65 47 -43 73 -99 79 -167 l6
-57 -79 14 c-262 44 -331 58 -342 68 -3 4 17 30 45 59 49 50 51 53 36 75 -16
22 -14 25 38 79 30 30 134 131 232 224 170 161 178 168 197 152 10 -9 16 -21
13 -27 -4 -6 0 -5 9 2 13 11 32 11 95 2 43 -6 96 -15 118 -20 80 -19 98 -14
119 33 29 64 66 107 90 107 52 0 642 -105 663 -118 6 -4 19 -35 29 -70 l19
-63 32 64 31 64 -80 119 c-44 65 -166 247 -271 404 -178 267 -233 346 -192
275 17 -30 16 -32 -16 -100 -35 -75 -81 -148 -113 -181 -12 -11 -34 -36 -51
-55 -16 -19 -38 -38 -47 -42 -10 -3 -18 -11 -18 -17 0 -5 -7 -10 -15 -10 -8 0
-15 -4 -15 -9 0 -9 -59 -48 -71 -47 -4 1 -15 -6 -25 -15 -43 -36 -152 -75
-264 -94 -109 -19 -185 -19 -285 0 -119 21 -254 69 -270 94 -3 6 -10 9 -14 6
-5 -2 -16 4 -26 15 -10 11 -24 20 -32 20 -7 0 -13 5 -13 10 0 6 -8 14 -17 17
-23 8 -153 137 -153 151 0 6 -5 12 -11 14 -18 6 -105 167 -114 210 -2 9 -9 26
-15 38 -16 29 -40 183 -40 255 0 79 25 226 44 263 8 16 13 31 11 34 -3 2 9 29
25 59 16 30 39 74 52 98 12 24 28 46 35 48 7 3 13 10 13 15 0 14 131 143 153
151 9 3 17 11 17 17 0 5 6 10 13 10 8 0 22 9 32 20 10 11 21 17 26 15 4 -3 11
-1 14 5 8 13 96 53 138 64 23 5 36 0 70 -26 22 -18 49 -37 58 -43 9 -5 50 -37
90 -69 168 -135 124 -92 -86 85 -176 148 -630 527 -657 547 -15 12 -22 5 -62
-65z m-448 -1523 c147 -72 222 -114 222 -124 0 -9 -10 -45 -22 -81 -26 -80
-11 -81 -221 16 -262 121 -402 193 -405 210 -1 8 16 43 38 76 l41 61 62 -25
c34 -13 162 -74 285 -133z m596 -393 c26 -75 122 -386 151 -494 10 -34 15 -69
12 -77 -9 -23 -86 -71 -97 -60 -10 11 -60 165 -130 399 -27 94 -54 180 -60
193 -8 19 -4 31 26 71 49 65 65 59 98 -32z"/>
<path d="M9140 9639 c-225 -26 -408 -78 -580 -164 -268 -135 -423 -293 -613
-624 -160 -279 -237 -617 -237 -1046 0 -767 257 -1297 742 -1530 51 -25 134
-54 183 -66 50 -12 128 -32 175 -44 198 -54 365 -75 600 -75 266 0 459 29 669
102 443 152 740 456 900 921 82 237 114 454 115 767 0 386 -54 667 -180 939
-98 211 -279 428 -456 549 -216 147 -488 241 -787 272 -120 12 -422 11 -531
-1z m501 -280 c64 -10 85 -19 163 -72 277 -184 430 -350 535 -578 110 -242
158 -484 168 -849 11 -433 -44 -870 -144 -1139 -24 -66 -33 -78 -92 -126 -126
-101 -279 -166 -471 -200 -146 -26 -488 -32 -620 -11 -467 74 -755 402 -849
967 -37 223 -44 345 -38 679 9 491 57 783 161 989 80 156 253 258 541 316 217
44 459 53 646 24z"/>
<path d="M4690 9609 c0 -7 23 -55 51 -107 48 -88 51 -98 40 -127 -15 -42 -14
-76 4 -128 8 -24 206 -387 441 -808 457 -821 487 -875 516 -959 49 -140 51
-169 57 -685 6 -483 6 -491 28 -532 13 -23 27 -44 33 -48 5 -3 10 -22 10 -41
l0 -34 230 0 230 0 0 661 0 661 401 787 c221 432 466 913 545 1068 79 154 144
286 144 292 0 8 -47 11 -162 9 l-163 -3 -245 -490 c-135 -269 -335 -672 -445
-895 -179 -362 -202 -405 -224 -405 -29 0 -18 -19 -560 1010 l-410 780 -261 3
c-194 2 -260 -1 -260 -9z"/>
<path d="M24208 9589 c-404 -31 -756 -189 -1004 -452 -83 -87 -183 -225 -228
-315 -15 -29 -43 -78 -63 -109 -158 -248 -233 -613 -220 -1083 20 -760 239
-1237 666 -1450 44 -23 121 -50 169 -61 48 -11 134 -31 192 -44 166 -39 283
-48 500 -42 343 10 714 87 986 205 l89 38 3 93 c3 93 3 94 -20 87 -362 -108
-939 -178 -1202 -146 -455 54 -688 361 -783 1030 -26 184 -26 860 1 1074 58
474 145 647 377 756 84 38 160 57 290 72 125 14 206 7 531 -48 144 -24 234
-34 295 -33 65 1 119 -5 206 -25 66 -15 121 -25 124 -23 5 5 123 396 123 407
0 8 -188 33 -365 50 -110 10 -502 31 -540 28 -11 0 -68 -5 -127 -9z"/>
<path d="M16415 9580 c-148 -5 -339 -13 -423 -19 -85 -6 -160 -11 -168 -11
-11 0 -14 -21 -14 -109 0 -83 -3 -111 -15 -121 -8 -6 -23 -36 -35 -66 -20 -54
-20 -70 -20 -1512 0 -949 4 -1470 10 -1493 6 -20 21 -53 35 -73 14 -20 25 -50
25 -66 l0 -30 240 0 240 0 0 730 0 730 154 0 c153 0 154 0 170 -25 9 -14 44
-56 78 -93 80 -88 119 -149 278 -437 73 -132 162 -289 198 -350 218 -368 368
-518 573 -571 97 -25 471 -26 593 -1 50 10 105 25 123 32 l34 14 -3 73 -3 73
-71 6 c-40 4 -89 12 -110 19 -201 65 -412 272 -649 635 -85 129 -385 639 -392
663 -3 13 17 27 84 59 198 95 362 233 462 388 63 99 124 251 147 370 24 123
24 350 0 465 -75 358 -306 581 -698 675 -198 47 -405 58 -843 45z m428 -255
l98 -15 82 -72 c226 -200 298 -309 342 -518 46 -221 18 -532 -65 -707 -23 -50
-39 -69 -77 -93 -130 -83 -406 -130 -760 -130 l-173 0 0 764 0 765 53 5 c28 3
66 8 82 9 83 10 330 5 418 -8z"/>
<path d="M25937 9554 c-4 -4 -7 -54 -7 -112 0 -90 -3 -108 -21 -134 -51 -70
-49 -19 -49 -1572 0 -945 4 -1464 10 -1487 6 -20 21 -53 35 -73 14 -20 25 -50
25 -66 l0 -30 240 0 240 0 0 738 1 737 82 88 c45 48 89 87 98 87 28 0 119 -75
163 -135 24 -31 71 -106 106 -168 461 -812 744 -1171 1037 -1313 98 -47 179
-63 373 -70 177 -7 279 2 433 37 l87 21 0 78 0 77 -77 5 c-104 7 -197 40 -304
107 -339 214 -656 630 -1193 1566 -162 283 -165 289 -148 309 342 391 765 824
905 928 178 132 366 208 513 208 l74 0 0 80 c0 78 0 80 -27 87 -16 5 -104 8
-198 7 -200 0 -299 -20 -430 -84 -227 -111 -434 -317 -1090 -1085 -227 -266
-319 -367 -354 -387 l-46 -28 -5 793 -5 792 -231 3 c-127 1 -233 -1 -237 -4z"/>
<path d="M11807 9376 c-48 -73 -47 -40 -47 -1173 0 -673 4 -1099 10 -1161 22
-198 81 -386 162 -513 114 -178 315 -314 526 -355 43 -9 131 -26 197 -40 165
-33 274 -44 457 -44 415 0 734 99 1003 313 71 56 195 184 195 201 0 3 -85 6
-189 6 l-190 0 35 58 c41 68 78 178 101 305 15 82 17 214 20 1262 3 1167 3
1170 -17 1145 -51 -65 -50 -48 -50 -999 -1 -1336 -11 -1503 -102 -1754 -19
-52 -27 -62 -92 -105 -254 -170 -868 -202 -1164 -62 -54 26 -103 59 -141 95
l-58 55 -241 0 -242 0 -19 38 c-37 72 -82 218 -104 332 -21 112 -21 140 -27
1270 -5 1120 -6 1153 -23 1126z"/>
<path d="M22205 9140 c-91 -10 -411 -40 -433 -40 -9 -1 -2 -7 16 -15 17 -8 32
-18 32 -23 0 -5 15 -24 33 -43 18 -19 46 -55 63 -80 28 -42 94 -171 98 -194 2
-5 10 -34 19 -64 9 -29 15 -57 12 -61 -3 -4 1 -13 9 -19 11 -9 30 27 100 189
164 378 157 360 138 359 -9 -1 -48 -5 -87 -9z"/>
<path d="M21468 9063 c7 -3 16 -2 19 1 4 3 -2 6 -13 5 -11 0 -14 -3 -6 -6z"/>
<path d="M21946 8325 c-9 -26 -7 -32 5 -12 6 10 9 21 6 23 -2 3 -7 -2 -11 -11z"/>
<path d="M18740 7775 c-14 -8 -20 -14 -15 -14 6 0 21 6 35 14 14 8 21 14 15
14 -5 0 -21 -6 -35 -14z"/>
<path d="M22026 7286 c-10 -36 -7 -38 31 -31 43 8 96 34 73 35 -8 0 -34 5 -57
9 -37 7 -42 6 -47 -13z"/>
</g>
</svg>
